<svg width="40" height="40" viewBox="0 0 40 40" fill="none" xmlns="http://www.w3.org/2000/svg">
<path d="M20 26.25C23.4517 26.25 26.25 23.4518 26.25 20C26.25 16.5482 23.4517 13.75 20 13.75C16.5482 13.75 13.75 16.5482 13.75 20C13.75 23.4518 16.5482 26.25 20 26.25Z" fill="#8A9B6E"/>
<path d="M31.261 34.7975C31.7928 35.3293 31.7395 36.2095 31.1146 36.6282C27.9357 38.7575 24.1122 39.9993 19.9986 39.9993C15.885 39.9993 12.0614 38.7575 8.88246 36.6282C8.25768 36.2095 8.20428 35.3293 8.73604 34.7975L13.3034 30.23C13.7163 29.8173 14.3566 29.752 14.8762 30.0182C16.4126 30.8053 18.1537 31.2493 19.9986 31.2493C21.8434 31.2493 23.5846 30.8053 25.121 30.0182C25.6406 29.752 26.2808 29.8173 26.6937 30.23L31.261 34.7975Z" fill="#8A9B6E"/>
<path d="M31.116 3.37124C31.7409 3.78976 31.7942 4.67011 31.2624 5.20187L26.6951 9.76931C26.2822 10.1821 25.6418 10.2473 25.1222 9.98113C23.5858 9.19407 21.8448 8.75 19.9999 8.75C13.7867 8.75 8.74996 13.7868 8.74996 20C8.74996 21.8448 9.19402 23.586 9.98109 25.1224C10.2473 25.642 10.1821 26.2822 9.76927 26.6951L5.20184 31.2627C4.67009 31.7942 3.78973 31.7409 3.37122 31.1162C1.2419 27.9371 0 24.1136 0 20C0 8.95431 8.95427 0 19.9999 0C24.1136 0 27.9371 1.24191 31.116 3.37124Z" fill="#8A9B6E"/>
</svg>
