<svg width="50" height="54" viewBox="0 0 50 54" fill="none" xmlns="http://www.w3.org/2000/svg">
<path d="M2.14214 52.28V43.064H3.42614V43.616C3.57814 43.44 3.76214 43.288 3.97814 43.16C4.19414 43.032 4.45014 42.968 4.74614 42.968C5.10614 42.968 5.39014 43.064 5.59814 43.256C5.81414 43.44 5.97414 43.676 6.07814 43.964C6.18214 44.244 6.25014 44.532 6.28214 44.828C6.31414 45.116 6.33014 45.364 6.33014 45.572V47.252C6.33014 47.74 6.28214 48.204 6.18614 48.644C6.09014 49.076 5.91414 49.428 5.65814 49.7C5.41014 49.964 5.05814 50.096 4.60214 50.096C4.35414 50.096 4.13414 50.036 3.94214 49.916C3.75014 49.788 3.57814 49.644 3.42614 49.484V52.28H2.14214ZM4.35014 49.088C4.57414 49.088 4.73414 49.008 4.83014 48.848C4.92614 48.68 4.98614 48.456 5.01014 48.176C5.03414 47.896 5.04614 47.588 5.04614 47.252V45.572C5.04614 45.284 5.03014 45.02 4.99814 44.78C4.96614 44.532 4.89814 44.336 4.79414 44.192C4.69014 44.048 4.52614 43.976 4.30214 43.976C4.13414 43.976 3.97414 44.012 3.82214 44.084C3.67014 44.156 3.53814 44.24 3.42614 44.336V48.776C3.54614 48.864 3.68214 48.94 3.83414 49.004C3.98614 49.06 4.15814 49.088 4.35014 49.088ZM7.61761 50V40.28H8.90161V50H7.61761ZM11.4878 50.096C11.2158 50.096 10.9758 50.02 10.7678 49.868C10.5598 49.708 10.3958 49.508 10.2758 49.268C10.1558 49.02 10.0958 48.76 10.0958 48.488C10.0958 48.056 10.1678 47.692 10.3118 47.396C10.4558 47.1 10.6518 46.852 10.8998 46.652C11.1558 46.444 11.4478 46.264 11.7758 46.112C12.1118 45.96 12.4638 45.812 12.8318 45.668V45.176C12.8318 44.896 12.8158 44.664 12.7838 44.48C12.7518 44.296 12.6838 44.16 12.5798 44.072C12.4838 43.976 12.3358 43.928 12.1358 43.928C11.9598 43.928 11.8158 43.968 11.7038 44.048C11.5998 44.128 11.5238 44.244 11.4758 44.396C11.4278 44.54 11.4038 44.712 11.4038 44.912V45.26L10.1318 45.212C10.1478 44.444 10.3238 43.88 10.6598 43.52C10.9958 43.152 11.5158 42.968 12.2198 42.968C12.9078 42.968 13.3958 43.156 13.6838 43.532C13.9718 43.908 14.1158 44.452 14.1158 45.164V48.332C14.1158 48.548 14.1198 48.756 14.1278 48.956C14.1438 49.156 14.1598 49.344 14.1758 49.52C14.1998 49.688 14.2198 49.848 14.2358 50H13.0598C13.0358 49.872 13.0038 49.712 12.9638 49.52C12.9318 49.32 12.9078 49.14 12.8918 48.98C12.8118 49.252 12.6558 49.508 12.4238 49.748C12.1998 49.98 11.8878 50.096 11.4878 50.096ZM11.9918 48.992C12.1198 48.992 12.2398 48.956 12.3518 48.884C12.4638 48.812 12.5638 48.732 12.6518 48.644C12.7398 48.548 12.7998 48.472 12.8318 48.416V46.448C12.6318 46.56 12.4438 46.672 12.2678 46.784C12.0918 46.896 11.9358 47.016 11.7998 47.144C11.6718 47.264 11.5678 47.404 11.4878 47.564C11.4158 47.716 11.3798 47.892 11.3798 48.092C11.3798 48.372 11.4318 48.592 11.5358 48.752C11.6398 48.912 11.7918 48.992 11.9918 48.992ZM15.3492 50V43.064H16.6332V43.748C16.8652 43.532 17.1212 43.348 17.4012 43.196C17.6812 43.044 17.9892 42.968 18.3252 42.968C18.6052 42.968 18.8172 43.04 18.9612 43.184C19.1132 43.328 19.2172 43.508 19.2732 43.724C19.3372 43.94 19.3692 44.16 19.3692 44.384V50H18.0852V44.756C18.0852 44.508 18.0492 44.316 17.9772 44.18C17.9052 44.044 17.7572 43.976 17.5332 43.976C17.3892 43.976 17.2372 44.02 17.0772 44.108C16.9252 44.188 16.7772 44.288 16.6332 44.408V50H15.3492ZM22.4706 50.096C22.1106 50.096 21.8186 50.028 21.5946 49.892C21.3786 49.756 21.2186 49.564 21.1146 49.316C21.0186 49.068 20.9706 48.776 20.9706 48.44V43.916H20.2386V43.064H20.9706V41.036H22.2546V43.064H23.3706V43.916H22.2546V48.356C22.2546 48.628 22.2986 48.824 22.3866 48.944C22.4746 49.056 22.6426 49.112 22.8906 49.112C22.9546 49.112 23.0266 49.108 23.1066 49.1C23.1946 49.092 23.2786 49.084 23.3586 49.076V50.024C23.1986 50.048 23.0506 50.064 22.9146 50.072C22.7786 50.088 22.6306 50.096 22.4706 50.096ZM24.422 50V40.28H26.834C27.418 40.28 27.882 40.388 28.226 40.604C28.578 40.812 28.834 41.116 28.994 41.516C29.154 41.916 29.234 42.4 29.234 42.968C29.234 43.48 29.142 43.924 28.958 44.3C28.782 44.676 28.518 44.968 28.166 45.176C27.814 45.376 27.374 45.476 26.846 45.476H25.778V50H24.422ZM25.778 44.504H26.402C26.794 44.504 27.102 44.46 27.326 44.372C27.55 44.284 27.71 44.132 27.806 43.916C27.902 43.692 27.95 43.38 27.95 42.98C27.95 42.516 27.914 42.16 27.842 41.912C27.778 41.664 27.638 41.492 27.422 41.396C27.206 41.3 26.87 41.252 26.414 41.252H25.778V44.504ZM31.9293 50.096C31.3853 50.096 30.9653 49.992 30.6693 49.784C30.3733 49.568 30.1653 49.256 30.0453 48.848C29.9333 48.432 29.8773 47.924 29.8773 47.324V45.74C29.8773 45.124 29.9373 44.612 30.0573 44.204C30.1773 43.796 30.3853 43.488 30.6813 43.28C30.9853 43.072 31.4013 42.968 31.9293 42.968C32.5133 42.968 32.9413 43.088 33.2133 43.328C33.4933 43.568 33.6773 43.916 33.7653 44.372C33.8533 44.82 33.8973 45.36 33.8973 45.992V46.556H31.1613V47.948C31.1613 48.228 31.1853 48.456 31.2333 48.632C31.2893 48.808 31.3733 48.94 31.4853 49.028C31.6053 49.108 31.7573 49.148 31.9413 49.148C32.1333 49.148 32.2773 49.104 32.3733 49.016C32.4773 48.92 32.5453 48.788 32.5773 48.62C32.6173 48.444 32.6373 48.24 32.6373 48.008V47.588H33.8853V47.852C33.8853 48.548 33.7373 49.096 33.4413 49.496C33.1453 49.896 32.6413 50.096 31.9293 50.096ZM31.1613 45.86H32.6373V45.236C32.6373 44.948 32.6213 44.708 32.5893 44.516C32.5573 44.316 32.4893 44.168 32.3853 44.072C32.2893 43.968 32.1333 43.916 31.9173 43.916C31.7093 43.916 31.5493 43.964 31.4373 44.06C31.3333 44.156 31.2613 44.32 31.2213 44.552C31.1813 44.776 31.1613 45.088 31.1613 45.488V45.86ZM36.3081 50.096C36.0361 50.096 35.7961 50.02 35.5881 49.868C35.3801 49.708 35.2161 49.508 35.0961 49.268C34.9761 49.02 34.9161 48.76 34.9161 48.488C34.9161 48.056 34.9881 47.692 35.1321 47.396C35.2761 47.1 35.4721 46.852 35.7201 46.652C35.9761 46.444 36.2681 46.264 36.5961 46.112C36.9321 45.96 37.2841 45.812 37.6521 45.668V45.176C37.6521 44.896 37.6361 44.664 37.6041 44.48C37.5721 44.296 37.5041 44.16 37.4001 44.072C37.3041 43.976 37.1561 43.928 36.9561 43.928C36.7801 43.928 36.6361 43.968 36.5241 44.048C36.4201 44.128 36.3441 44.244 36.2961 44.396C36.2481 44.54 36.2241 44.712 36.2241 44.912V45.26L34.9521 45.212C34.9681 44.444 35.1441 43.88 35.4801 43.52C35.8161 43.152 36.3361 42.968 37.0401 42.968C37.7281 42.968 38.2161 43.156 38.5041 43.532C38.7921 43.908 38.9361 44.452 38.9361 45.164V48.332C38.9361 48.548 38.9401 48.756 38.9481 48.956C38.9641 49.156 38.9801 49.344 38.9961 49.52C39.0201 49.688 39.0401 49.848 39.0561 50H37.8801C37.8561 49.872 37.8241 49.712 37.7841 49.52C37.7521 49.32 37.7281 49.14 37.7121 48.98C37.6321 49.252 37.4761 49.508 37.2441 49.748C37.0201 49.98 36.7081 50.096 36.3081 50.096ZM36.8121 48.992C36.9401 48.992 37.0601 48.956 37.1721 48.884C37.2841 48.812 37.3841 48.732 37.4721 48.644C37.5601 48.548 37.6201 48.472 37.6521 48.416V46.448C37.4521 46.56 37.2641 46.672 37.0881 46.784C36.9121 46.896 36.7561 47.016 36.6201 47.144C36.4921 47.264 36.3881 47.404 36.3081 47.564C36.2361 47.716 36.2001 47.892 36.2001 48.092C36.2001 48.372 36.2521 48.592 36.3561 48.752C36.4601 48.912 36.6121 48.992 36.8121 48.992ZM42.0655 50.096C41.4975 50.096 41.0655 49.984 40.7695 49.76C40.4815 49.528 40.2855 49.204 40.1815 48.788C40.0855 48.372 40.0375 47.888 40.0375 47.336V45.74C40.0375 45.156 40.0895 44.66 40.1935 44.252C40.2975 43.836 40.4935 43.52 40.7815 43.304C41.0775 43.08 41.5055 42.968 42.0655 42.968C42.5695 42.968 42.9575 43.052 43.2295 43.22C43.5095 43.38 43.7015 43.624 43.8055 43.952C43.9095 44.272 43.9615 44.672 43.9615 45.152V45.56H42.7975V45.14C42.7975 44.836 42.7775 44.596 42.7375 44.42C42.6975 44.244 42.6255 44.116 42.5215 44.036C42.4175 43.956 42.2695 43.916 42.0775 43.916C41.8695 43.916 41.7095 43.964 41.5975 44.06C41.4855 44.156 41.4095 44.32 41.3695 44.552C41.3375 44.776 41.3215 45.084 41.3215 45.476V47.66C41.3215 48.252 41.3775 48.648 41.4895 48.848C41.6015 49.048 41.8015 49.148 42.0895 49.148C42.3055 49.148 42.4615 49.1 42.5575 49.004C42.6615 48.9 42.7255 48.756 42.7495 48.572C42.7815 48.388 42.7975 48.18 42.7975 47.948V47.384H43.9615V47.864C43.9615 48.328 43.9055 48.728 43.7935 49.064C43.6895 49.4 43.4975 49.656 43.2175 49.832C42.9455 50.008 42.5615 50.096 42.0655 50.096ZM47.0231 50.096C46.4791 50.096 46.0591 49.992 45.7631 49.784C45.4671 49.568 45.2591 49.256 45.1391 48.848C45.0271 48.432 44.9711 47.924 44.9711 47.324V45.74C44.9711 45.124 45.0311 44.612 45.1511 44.204C45.2711 43.796 45.4791 43.488 45.7751 43.28C46.0791 43.072 46.4951 42.968 47.0231 42.968C47.6071 42.968 48.0351 43.088 48.3071 43.328C48.5871 43.568 48.7711 43.916 48.8591 44.372C48.9471 44.82 48.9911 45.36 48.9911 45.992V46.556H46.2551V47.948C46.2551 48.228 46.2791 48.456 46.3271 48.632C46.3831 48.808 46.4671 48.94 46.5791 49.028C46.6991 49.108 46.8511 49.148 47.0351 49.148C47.2271 49.148 47.3711 49.104 47.4671 49.016C47.5711 48.92 47.6391 48.788 47.6711 48.62C47.7111 48.444 47.7311 48.24 47.7311 48.008V47.588H48.9791V47.852C48.9791 48.548 48.8311 49.096 48.5351 49.496C48.2391 49.896 47.7351 50.096 47.0231 50.096ZM46.2551 45.86H47.7311V45.236C47.7311 44.948 47.7151 44.708 47.6831 44.516C47.6511 44.316 47.5831 44.168 47.4791 44.072C47.3831 43.968 47.2271 43.916 47.0111 43.916C46.8031 43.916 46.6431 43.964 46.5311 44.06C46.4271 44.156 46.3551 44.32 46.3151 44.552C46.2751 44.776 46.2551 45.088 46.2551 45.488V45.86Z" fill="#F0F1EE"/>
<path d="M23.7745 25.75C23.6495 23.75 22.612 19.4125 20.212 18.8125" stroke="#8A9B6E" stroke-width="0.375"/>
<path d="M3.46399 9.18808C3.46399 9.18808 8.30871 17.3437 11.739 19.3242C15.1692 21.3046 18.2898 22.3215 20.2703 18.8912C22.2508 15.461 20.5971 12.7471 17.1668 10.7666C13.7366 8.78614 3.46399 9.18808 3.46399 9.18808Z" fill="#567361"/>
<mask id="mask0_109_317" style="mask-type:alpha" maskUnits="userSpaceOnUse" x="0" y="8" width="27" height="20">
<path d="M26.4692 22.4712L2.82897 8.82248L9.52801e-06 13.4351L23.6403 27.0838L26.4692 22.4712Z" fill="#D9D9D9"/>
</mask>
<g mask="url(#mask0_109_317)">
<path d="M3.37956 9.15318C3.37956 9.15318 8.23118 17.3757 11.6778 19.3656C15.1244 21.3555 18.2623 22.3731 20.266 18.9025C22.2697 15.432 20.6134 12.696 17.1668 10.7061C13.7202 8.71619 3.37956 9.15318 3.37956 9.15318Z" fill="#354733"/>
</g>
<path d="M25.0781 25.9375C25.1719 24.4375 25.95 21.1844 27.75 20.7344" stroke="#8A9B6E" stroke-width="0.28125"/>
<path d="M40.311 13.5158C40.311 13.5158 36.6775 19.6325 34.1048 21.1179C31.5321 22.6032 29.1916 23.3659 27.7063 20.7932C26.2209 18.2205 27.4612 16.1851 30.0339 14.6997C32.6066 13.2144 40.311 13.5158 40.311 13.5158Z" fill="#587462"/>
<mask id="mask1_109_317" style="mask-type:alpha" maskUnits="userSpaceOnUse" x="23" y="13" width="20" height="14">
<path d="M23.0571 23.4785L40.7873 13.242L42.909 16.7014L25.1788 26.938L23.0571 23.4785Z" fill="#D9D9D9"/>
</mask>
<g mask="url(#mask1_109_317)">
<path d="M40.3743 13.4898C40.3743 13.4898 36.7356 19.6567 34.1507 21.1491C31.5657 22.6415 29.2123 23.4047 27.7095 20.8018C26.2067 18.1989 27.4489 16.1469 30.0339 14.6544C32.6188 13.162 40.3743 13.4898 40.3743 13.4898Z" fill="#354733"/>
</g>
<path d="M24.5 25.5C24.375 23.5 24.5 14.75 24.5 14.75" stroke="#8A9B6E" stroke-width="0.375"/>
<path d="M24.6133 0.656735C24.6133 0.656735 28.0937 6.86183 28.0937 9.83252C28.0937 12.8032 27.584 15.2114 24.6133 15.2114C21.6426 15.2114 20.5 13.1196 20.5 10.1489C20.5 7.17824 24.6133 0.656735 24.6133 0.656735Z" fill="#8A9B6E"/>
<mask id="mask2_109_317" style="mask-type:alpha" maskUnits="userSpaceOnUse" x="24" y="0" width="5" height="21">
<path d="M24.6141 20.5806L24.6141 0.107508L28.6709 -0.000234466L28.6709 20.4728L24.6141 20.5806Z" fill="#D9D9D9"/>
</mask>
<g mask="url(#mask2_109_317)">
<path d="M24.6224 0.588849C24.6224 0.588849 28.1437 6.82351 28.1437 9.80836C28.1437 12.7932 27.6279 15.2129 24.6224 15.2129C21.6168 15.2129 20.4608 13.1111 20.4608 10.1263C20.4608 7.14143 24.6224 0.588849 24.6224 0.588849Z" fill="#354733"/>
</g>
<rect x="16.875" y="25.375" width="15" height="3.75" fill="#D54B01"/>
<rect x="16.875" y="35.5" width="15" height="0.75" fill="#D54B01"/>
<path d="M18.375 29.125H30.375L30 31.75H18.75L18.375 29.125Z" fill="#4C210D"/>
<path d="M19.125 31.75H29.625L29.4277 33.25H19.3559L19.125 31.75Z" fill="#D54B01"/>
<path d="M19.5 33.25H29.25L28.9453 35.5H19.8047L19.5 33.25Z" fill="#50210B"/>
</svg>
