<svg width="50" height="55" viewBox="0 0 50 55" fill="none" xmlns="http://www.w3.org/2000/svg">
<path d="M2.14214 52.78V43.564H3.42614V44.116C3.57814 43.94 3.76214 43.788 3.97814 43.66C4.19414 43.532 4.45014 43.468 4.74614 43.468C5.10614 43.468 5.39014 43.564 5.59814 43.756C5.81414 43.94 5.97414 44.176 6.07814 44.464C6.18214 44.744 6.25014 45.032 6.28214 45.328C6.31414 45.616 6.33014 45.864 6.33014 46.072V47.752C6.33014 48.24 6.28214 48.704 6.18614 49.144C6.09014 49.576 5.91414 49.928 5.65814 50.2C5.41014 50.464 5.05814 50.596 4.60214 50.596C4.35414 50.596 4.13414 50.536 3.94214 50.416C3.75014 50.288 3.57814 50.144 3.42614 49.984V52.78H2.14214ZM4.35014 49.588C4.57414 49.588 4.73414 49.508 4.83014 49.348C4.92614 49.18 4.98614 48.956 5.01014 48.676C5.03414 48.396 5.04614 48.088 5.04614 47.752V46.072C5.04614 45.784 5.03014 45.52 4.99814 45.28C4.96614 45.032 4.89814 44.836 4.79414 44.692C4.69014 44.548 4.52614 44.476 4.30214 44.476C4.13414 44.476 3.97414 44.512 3.82214 44.584C3.67014 44.656 3.53814 44.74 3.42614 44.836V49.276C3.54614 49.364 3.68214 49.44 3.83414 49.504C3.98614 49.56 4.15814 49.588 4.35014 49.588ZM7.61761 50.5V40.78H8.90161V50.5H7.61761ZM11.4878 50.596C11.2158 50.596 10.9758 50.52 10.7678 50.368C10.5598 50.208 10.3958 50.008 10.2758 49.768C10.1558 49.52 10.0958 49.26 10.0958 48.988C10.0958 48.556 10.1678 48.192 10.3118 47.896C10.4558 47.6 10.6518 47.352 10.8998 47.152C11.1558 46.944 11.4478 46.764 11.7758 46.612C12.1118 46.46 12.4638 46.312 12.8318 46.168V45.676C12.8318 45.396 12.8158 45.164 12.7838 44.98C12.7518 44.796 12.6838 44.66 12.5798 44.572C12.4838 44.476 12.3358 44.428 12.1358 44.428C11.9598 44.428 11.8158 44.468 11.7038 44.548C11.5998 44.628 11.5238 44.744 11.4758 44.896C11.4278 45.04 11.4038 45.212 11.4038 45.412V45.76L10.1318 45.712C10.1478 44.944 10.3238 44.38 10.6598 44.02C10.9958 43.652 11.5158 43.468 12.2198 43.468C12.9078 43.468 13.3958 43.656 13.6838 44.032C13.9718 44.408 14.1158 44.952 14.1158 45.664V48.832C14.1158 49.048 14.1198 49.256 14.1278 49.456C14.1438 49.656 14.1598 49.844 14.1758 50.02C14.1998 50.188 14.2198 50.348 14.2358 50.5H13.0598C13.0358 50.372 13.0038 50.212 12.9638 50.02C12.9318 49.82 12.9078 49.64 12.8918 49.48C12.8118 49.752 12.6558 50.008 12.4238 50.248C12.1998 50.48 11.8878 50.596 11.4878 50.596ZM11.9918 49.492C12.1198 49.492 12.2398 49.456 12.3518 49.384C12.4638 49.312 12.5638 49.232 12.6518 49.144C12.7398 49.048 12.7998 48.972 12.8318 48.916V46.948C12.6318 47.06 12.4438 47.172 12.2678 47.284C12.0918 47.396 11.9358 47.516 11.7998 47.644C11.6718 47.764 11.5678 47.904 11.4878 48.064C11.4158 48.216 11.3798 48.392 11.3798 48.592C11.3798 48.872 11.4318 49.092 11.5358 49.252C11.6398 49.412 11.7918 49.492 11.9918 49.492ZM15.3492 50.5V43.564H16.6332V44.248C16.8652 44.032 17.1212 43.848 17.4012 43.696C17.6812 43.544 17.9892 43.468 18.3252 43.468C18.6052 43.468 18.8172 43.54 18.9612 43.684C19.1132 43.828 19.2172 44.008 19.2732 44.224C19.3372 44.44 19.3692 44.66 19.3692 44.884V50.5H18.0852V45.256C18.0852 45.008 18.0492 44.816 17.9772 44.68C17.9052 44.544 17.7572 44.476 17.5332 44.476C17.3892 44.476 17.2372 44.52 17.0772 44.608C16.9252 44.688 16.7772 44.788 16.6332 44.908V50.5H15.3492ZM22.4706 50.596C22.1106 50.596 21.8186 50.528 21.5946 50.392C21.3786 50.256 21.2186 50.064 21.1146 49.816C21.0186 49.568 20.9706 49.276 20.9706 48.94V44.416H20.2386V43.564H20.9706V41.536H22.2546V43.564H23.3706V44.416H22.2546V48.856C22.2546 49.128 22.2986 49.324 22.3866 49.444C22.4746 49.556 22.6426 49.612 22.8906 49.612C22.9546 49.612 23.0266 49.608 23.1066 49.6C23.1946 49.592 23.2786 49.584 23.3586 49.576V50.524C23.1986 50.548 23.0506 50.564 22.9146 50.572C22.7786 50.588 22.6306 50.596 22.4706 50.596ZM24.422 50.5V40.78H26.834C27.418 40.78 27.882 40.888 28.226 41.104C28.578 41.312 28.834 41.616 28.994 42.016C29.154 42.416 29.234 42.9 29.234 43.468C29.234 43.98 29.142 44.424 28.958 44.8C28.782 45.176 28.518 45.468 28.166 45.676C27.814 45.876 27.374 45.976 26.846 45.976H25.778V50.5H24.422ZM25.778 45.004H26.402C26.794 45.004 27.102 44.96 27.326 44.872C27.55 44.784 27.71 44.632 27.806 44.416C27.902 44.192 27.95 43.88 27.95 43.48C27.95 43.016 27.914 42.66 27.842 42.412C27.778 42.164 27.638 41.992 27.422 41.896C27.206 41.8 26.87 41.752 26.414 41.752H25.778V45.004ZM31.9293 50.596C31.3853 50.596 30.9653 50.492 30.6693 50.284C30.3733 50.068 30.1653 49.756 30.0453 49.348C29.9333 48.932 29.8773 48.424 29.8773 47.824V46.24C29.8773 45.624 29.9373 45.112 30.0573 44.704C30.1773 44.296 30.3853 43.988 30.6813 43.78C30.9853 43.572 31.4013 43.468 31.9293 43.468C32.5133 43.468 32.9413 43.588 33.2133 43.828C33.4933 44.068 33.6773 44.416 33.7653 44.872C33.8533 45.32 33.8973 45.86 33.8973 46.492V47.056H31.1613V48.448C31.1613 48.728 31.1853 48.956 31.2333 49.132C31.2893 49.308 31.3733 49.44 31.4853 49.528C31.6053 49.608 31.7573 49.648 31.9413 49.648C32.1333 49.648 32.2773 49.604 32.3733 49.516C32.4773 49.42 32.5453 49.288 32.5773 49.12C32.6173 48.944 32.6373 48.74 32.6373 48.508V48.088H33.8853V48.352C33.8853 49.048 33.7373 49.596 33.4413 49.996C33.1453 50.396 32.6413 50.596 31.9293 50.596ZM31.1613 46.36H32.6373V45.736C32.6373 45.448 32.6213 45.208 32.5893 45.016C32.5573 44.816 32.4893 44.668 32.3853 44.572C32.2893 44.468 32.1333 44.416 31.9173 44.416C31.7093 44.416 31.5493 44.464 31.4373 44.56C31.3333 44.656 31.2613 44.82 31.2213 45.052C31.1813 45.276 31.1613 45.588 31.1613 45.988V46.36ZM36.3081 50.596C36.0361 50.596 35.7961 50.52 35.5881 50.368C35.3801 50.208 35.2161 50.008 35.0961 49.768C34.9761 49.52 34.9161 49.26 34.9161 48.988C34.9161 48.556 34.9881 48.192 35.1321 47.896C35.2761 47.6 35.4721 47.352 35.7201 47.152C35.9761 46.944 36.2681 46.764 36.5961 46.612C36.9321 46.46 37.2841 46.312 37.6521 46.168V45.676C37.6521 45.396 37.6361 45.164 37.6041 44.98C37.5721 44.796 37.5041 44.66 37.4001 44.572C37.3041 44.476 37.1561 44.428 36.9561 44.428C36.7801 44.428 36.6361 44.468 36.5241 44.548C36.4201 44.628 36.3441 44.744 36.2961 44.896C36.2481 45.04 36.2241 45.212 36.2241 45.412V45.76L34.9521 45.712C34.9681 44.944 35.1441 44.38 35.4801 44.02C35.8161 43.652 36.3361 43.468 37.0401 43.468C37.7281 43.468 38.2161 43.656 38.5041 44.032C38.7921 44.408 38.9361 44.952 38.9361 45.664V48.832C38.9361 49.048 38.9401 49.256 38.9481 49.456C38.9641 49.656 38.9801 49.844 38.9961 50.02C39.0201 50.188 39.0401 50.348 39.0561 50.5H37.8801C37.8561 50.372 37.8241 50.212 37.7841 50.02C37.7521 49.82 37.7281 49.64 37.7121 49.48C37.6321 49.752 37.4761 50.008 37.2441 50.248C37.0201 50.48 36.7081 50.596 36.3081 50.596ZM36.8121 49.492C36.9401 49.492 37.0601 49.456 37.1721 49.384C37.2841 49.312 37.3841 49.232 37.4721 49.144C37.5601 49.048 37.6201 48.972 37.6521 48.916V46.948C37.4521 47.06 37.2641 47.172 37.0881 47.284C36.9121 47.396 36.7561 47.516 36.6201 47.644C36.4921 47.764 36.3881 47.904 36.3081 48.064C36.2361 48.216 36.2001 48.392 36.2001 48.592C36.2001 48.872 36.2521 49.092 36.3561 49.252C36.4601 49.412 36.6121 49.492 36.8121 49.492ZM42.0655 50.596C41.4975 50.596 41.0655 50.484 40.7695 50.26C40.4815 50.028 40.2855 49.704 40.1815 49.288C40.0855 48.872 40.0375 48.388 40.0375 47.836V46.24C40.0375 45.656 40.0895 45.16 40.1935 44.752C40.2975 44.336 40.4935 44.02 40.7815 43.804C41.0775 43.58 41.5055 43.468 42.0655 43.468C42.5695 43.468 42.9575 43.552 43.2295 43.72C43.5095 43.88 43.7015 44.124 43.8055 44.452C43.9095 44.772 43.9615 45.172 43.9615 45.652V46.06H42.7975V45.64C42.7975 45.336 42.7775 45.096 42.7375 44.92C42.6975 44.744 42.6255 44.616 42.5215 44.536C42.4175 44.456 42.2695 44.416 42.0775 44.416C41.8695 44.416 41.7095 44.464 41.5975 44.56C41.4855 44.656 41.4095 44.82 41.3695 45.052C41.3375 45.276 41.3215 45.584 41.3215 45.976V48.16C41.3215 48.752 41.3775 49.148 41.4895 49.348C41.6015 49.548 41.8015 49.648 42.0895 49.648C42.3055 49.648 42.4615 49.6 42.5575 49.504C42.6615 49.4 42.7255 49.256 42.7495 49.072C42.7815 48.888 42.7975 48.68 42.7975 48.448V47.884H43.9615V48.364C43.9615 48.828 43.9055 49.228 43.7935 49.564C43.6895 49.9 43.4975 50.156 43.2175 50.332C42.9455 50.508 42.5615 50.596 42.0655 50.596ZM47.0231 50.596C46.4791 50.596 46.0591 50.492 45.7631 50.284C45.4671 50.068 45.2591 49.756 45.1391 49.348C45.0271 48.932 44.9711 48.424 44.9711 47.824V46.24C44.9711 45.624 45.0311 45.112 45.1511 44.704C45.2711 44.296 45.4791 43.988 45.7751 43.78C46.0791 43.572 46.4951 43.468 47.0231 43.468C47.6071 43.468 48.0351 43.588 48.3071 43.828C48.5871 44.068 48.7711 44.416 48.8591 44.872C48.9471 45.32 48.9911 45.86 48.9911 46.492V47.056H46.2551V48.448C46.2551 48.728 46.2791 48.956 46.3271 49.132C46.3831 49.308 46.4671 49.44 46.5791 49.528C46.6991 49.608 46.8511 49.648 47.0351 49.648C47.2271 49.648 47.3711 49.604 47.4671 49.516C47.5711 49.42 47.6391 49.288 47.6711 49.12C47.7111 48.944 47.7311 48.74 47.7311 48.508V48.088H48.9791V48.352C48.9791 49.048 48.8311 49.596 48.5351 49.996C48.2391 50.396 47.7351 50.596 47.0231 50.596ZM46.2551 46.36H47.7311V45.736C47.7311 45.448 47.7151 45.208 47.6831 45.016C47.6511 44.816 47.5831 44.668 47.4791 44.572C47.3831 44.468 47.2271 44.416 47.0111 44.416C46.8031 44.416 46.6431 44.464 46.5311 44.56C46.4271 44.656 46.3551 44.82 46.3151 45.052C46.2751 45.276 46.2551 45.588 46.2551 45.988V46.36Z" fill="black"/>
<path d="M23.7745 26.25C23.6495 24.25 22.612 19.9125 20.212 19.3125" stroke="#8A9B6E" stroke-width="0.375"/>
<path d="M3.46399 9.68772C3.46399 9.68772 8.30871 17.8434 11.739 19.8238C15.1692 21.8043 18.2898 22.8211 20.2703 19.3909C22.2508 15.9606 20.5971 13.2467 17.1668 11.2662C13.7366 9.28578 3.46399 9.68772 3.46399 9.68772Z" fill="#567361"/>
<mask id="mask0_5102_56" style="mask-type:alpha" maskUnits="userSpaceOnUse" x="0" y="9" width="27" height="19">
<path d="M26.4692 22.9711L2.82897 9.3224L9.52801e-06 13.935L23.6403 27.5837L26.4692 22.9711Z" fill="#D9D9D9"/>
</mask>
<g mask="url(#mask0_5102_56)">
<path d="M3.37956 9.65297C3.37956 9.65297 8.23118 17.8755 11.6778 19.8654C15.1244 21.8553 18.2623 22.8729 20.266 19.4023C22.2697 15.9318 20.6134 13.1958 17.1668 11.2059C13.7202 9.21598 3.37956 9.65297 3.37956 9.65297Z" fill="#354733"/>
</g>
<path d="M25.0781 26.4375C25.1719 24.9375 25.95 21.6844 27.75 21.2344" stroke="#8A9B6E" stroke-width="0.28125"/>
<path d="M40.311 14.0158C40.311 14.0158 36.6775 20.1325 34.1048 21.6178C31.5321 23.1032 29.1916 23.8658 27.7063 21.2931C26.2209 18.7204 27.4612 16.685 30.0339 15.1997C32.6066 13.7143 40.311 14.0158 40.311 14.0158Z" fill="#587462"/>
<mask id="mask1_5102_56" style="mask-type:alpha" maskUnits="userSpaceOnUse" x="23" y="13" width="20" height="15">
<path d="M23.0571 23.9783L40.7873 13.7418L42.909 17.2012L25.1788 27.4378L23.0571 23.9783Z" fill="#D9D9D9"/>
</mask>
<g mask="url(#mask1_5102_56)">
<path d="M40.3743 13.9897C40.3743 13.9897 36.7356 20.1566 34.1507 21.649C31.5657 23.1415 29.2123 23.9046 27.7095 21.3017C26.2067 18.6988 27.4489 16.6468 30.0339 15.1544C32.6188 13.662 40.3743 13.9897 40.3743 13.9897Z" fill="#354733"/>
</g>
<path d="M24.5 26C24.375 24 24.5 15.25 24.5 15.25" stroke="#8A9B6E" stroke-width="0.375"/>
<path d="M24.6133 1.15719C24.6133 1.15719 28.0937 7.36229 28.0937 10.333C28.0937 13.3037 27.584 15.7119 24.6133 15.7119C21.6426 15.7119 20.5 13.6201 20.5 10.6494C20.5 7.67869 24.6133 1.15719 24.6133 1.15719Z" fill="#8A9B6E"/>
<mask id="mask2_5102_56" style="mask-type:alpha" maskUnits="userSpaceOnUse" x="24" y="0" width="5" height="22">
<path d="M24.6141 21.0808L24.6141 0.60774L28.6709 0.499998L28.6709 20.9731L24.6141 21.0808Z" fill="#D9D9D9"/>
</mask>
<g mask="url(#mask2_5102_56)">
<path d="M24.6224 1.08933C24.6224 1.08933 28.1437 7.32399 28.1437 10.3088C28.1437 13.2937 27.6279 15.7134 24.6224 15.7134C21.6168 15.7134 20.4608 13.6116 20.4608 10.6267C20.4608 7.6419 24.6224 1.08933 24.6224 1.08933Z" fill="#354733"/>
</g>
<rect x="16.875" y="25.875" width="15" height="3.75" fill="#D54B01"/>
<rect x="16.875" y="36" width="15" height="0.75" fill="#D54B01"/>
<path d="M18.375 29.625H30.375L30 32.25H18.75L18.375 29.625Z" fill="#4C210D"/>
<path d="M19.125 32.25H29.625L29.4277 33.75H19.3559L19.125 32.25Z" fill="#D54B01"/>
<path d="M19.5 33.75H29.25L28.9453 36H19.8047L19.5 33.75Z" fill="#50210B"/>
</svg>
