<svg width="40" height="40" viewBox="0 0 40 40" fill="none" xmlns="http://www.w3.org/2000/svg">
<g clip-path="url(#clip0_5245_1507)">
<path d="M20.0012 8.00098C14.6678 8.00098 11.3356 10.6666 10.0012 16C12.0006 13.3341 14.3347 12.3344 17.0006 13.001C18.5228 13.3804 19.6106 14.4841 20.8153 15.7072C22.7759 17.6969 25.0453 20.0004 30.0012 20.0004C35.3343 20.0004 38.6668 17.3344 40.0012 11.9997C38.0015 14.6672 35.6678 15.6669 33.0015 15.0004C31.4797 14.6207 30.3931 13.5172 29.1868 12.2941C27.2275 10.3044 24.9587 8.00098 20.0012 8.00098ZM10.0012 20.0004C4.6681 20.0004 1.3356 22.6663 0.0012207 28.001C2.0006 25.3335 4.33435 24.3338 7.0006 25.0004C8.52278 25.38 9.6106 26.4835 10.8153 27.7066C12.7759 29.6963 15.0453 31.9997 20.0012 31.9997C25.3343 31.9997 28.6668 29.3341 30.0012 24.0007C28.0015 26.6666 25.6678 27.6663 23.0015 26.9997C21.4797 26.6204 20.3931 25.5166 19.1868 24.2935C17.2275 22.3038 14.9587 20.0004 10.0012 20.0004Z" fill="#354733"/>
</g>
<defs>
<clipPath id="clip0_5245_1507">
<rect width="40" height="40" fill="white"/>
</clipPath>
</defs>
</svg>
