<svg width="40" height="40" viewBox="0 0 40 40" fill="none" xmlns="http://www.w3.org/2000/svg">
<g clip-path="url(#clip0_5245_1498)">
<path d="M7.08423 14.6875H38.2311V37.7094H7.08423V14.6875Z" fill="#FCFCFC"/>
<path d="M0.46875 19.9722V39.5034H39.5312V0.440918H0.46875V19.9722ZM31.9469 18.4097C32.8825 18.6268 33.7328 19.1161 34.3906 19.8159C34.7528 20.1929 35.0676 20.6127 35.3281 21.0659C35.3281 21.1159 33.6406 22.2565 32.6125 22.894C32.575 22.919 32.425 22.7565 32.2594 22.5097C32.0717 22.1858 31.805 21.9148 31.4842 21.7219C31.1635 21.529 30.799 21.4205 30.425 21.4065C29.2406 21.3253 28.4781 21.9472 28.4844 22.969C28.4746 23.2235 28.5328 23.4759 28.6531 23.7003C28.9125 24.2409 29.3969 24.5628 30.9156 25.219C33.7125 26.4222 34.9094 27.2159 35.6531 28.344C36.4844 29.594 36.6688 31.6128 36.1063 33.1065C35.4813 34.7315 33.95 35.8347 31.7844 36.2003C30.7953 36.3136 29.7959 36.3031 28.8094 36.169C27.2974 35.9198 25.9046 35.1939 24.8344 34.0972C24.475 33.7003 23.775 32.6659 23.8188 32.5909C23.9328 32.5062 24.0529 32.43 24.1781 32.3628L25.625 31.5628L26.7469 30.9128L26.9812 31.2597C27.3768 31.8255 27.8802 32.3076 28.4625 32.6784C29.7125 33.3347 31.4187 33.244 32.2625 32.4847C32.5458 32.2064 32.7225 31.8376 32.7619 31.4425C32.8013 31.0473 32.7009 30.6509 32.4781 30.3222C32.1656 29.8878 31.5406 29.5222 29.7937 28.7597C27.7781 27.8909 26.9094 27.3534 26.1156 26.4972C25.6201 25.9321 25.2543 25.2655 25.0437 24.544C24.8867 23.7198 24.8635 22.8757 24.975 22.044C25.3906 20.0972 26.85 18.7378 28.9812 18.3347C29.9683 18.2125 30.968 18.2399 31.9469 18.4159V18.4097ZM22.7781 20.0472V21.6472H17.7062V36.094H14.1094V21.644H9.025V20.0815C9.00916 19.5427 9.02168 19.0034 9.0625 18.4659C9.0875 18.4378 12.1875 18.4378 15.9375 18.4378H22.7594L22.7781 20.0472Z" fill="#354733"/>
</g>
<defs>
<clipPath id="clip0_5245_1498">
<rect width="40" height="40" fill="white"/>
</clipPath>
</defs>
</svg>
