<svg width="40" height="40" viewBox="0 0 40 40" fill="none" xmlns="http://www.w3.org/2000/svg">
<path d="M38.9892 6.09974L21.0386 38.1991C20.6677 38.8619 19.7155 38.8657 19.3396 38.2066L1.03269 6.10349C0.622375 5.38412 1.23644 4.5138 2.05175 4.65912L20.0217 7.87068C20.1364 7.89162 20.2539 7.89162 20.3686 7.87068L37.9624 4.66412C38.7742 4.5163 39.3921 5.37943 38.9892 6.09974Z" fill="#354733"/>
<path d="M28.5813 0.446902L15.2982 3.0494C15.1922 3.07012 15.096 3.12546 15.0249 3.20674C14.9537 3.28802 14.9116 3.39064 14.9051 3.49846L14.0872 17.301C14.0829 17.3767 14.0961 17.4523 14.1261 17.522C14.156 17.5917 14.2017 17.6534 14.2596 17.7024C14.3175 17.7513 14.386 17.7861 14.4597 17.8039C14.5334 17.8218 14.6102 17.8223 14.6841 17.8053L18.3829 16.9507C18.4625 16.9323 18.5455 16.9343 18.6242 16.9564C18.7029 16.9785 18.7748 17.0201 18.8332 17.0772C18.8917 17.1343 18.9349 17.2051 18.9589 17.2833C18.9828 17.3614 18.9868 17.4443 18.9704 17.5244L17.8713 22.9053C17.8545 22.9882 17.8595 23.0739 17.8858 23.1542C17.9121 23.2345 17.9588 23.3067 18.0213 23.3635C18.0838 23.4204 18.16 23.46 18.2425 23.4786C18.3249 23.4971 18.4108 23.494 18.4916 23.4694L20.7754 22.7747C21.1294 22.6672 21.4701 22.9785 21.3957 23.341L19.6488 31.7932C19.5401 32.3219 20.2432 32.61 20.5363 32.1569L20.7316 31.8544L31.5566 10.2513C31.7385 9.88878 31.4251 9.47628 31.0285 9.55315L27.2207 10.2882C27.1387 10.3041 27.0541 10.2987 26.9749 10.2724C26.8956 10.2462 26.8244 10.2 26.7682 10.1384C26.7119 10.0767 26.6725 10.0016 26.6536 9.92033C26.6347 9.83903 26.637 9.75423 26.6604 9.67409L29.1447 1.06096C29.1681 0.980541 29.1704 0.895456 29.1513 0.813913C29.1322 0.73237 29.0924 0.657117 29.0358 0.595411C28.9792 0.533704 28.9076 0.487623 28.828 0.461612C28.7484 0.4356 28.6634 0.430534 28.5813 0.446902Z" fill="#8A9B6E"/>
</svg>
